<?xml version="1.0" encoding="UTF-8"?><svg id="Layer_1" xmlns="http://www.w3.org/2000/svg" viewBox="0 0 48.03 48.03"><defs><style>.cls-1{fill:#9fa2a5;stroke-width:0px;}</style></defs><path class="cls-1" d="M47.2,43.16l-10.68-10.68c2.56-3.4,4.09-7.6,4.09-12.17C40.61,9.11,31.5,0,20.3,0S0,9.11,0,20.3s9.11,20.3,20.3,20.3c4.57,0,8.78-1.54,12.17-4.09l10.68,10.68c.56.56,1.29.84,2.02.84s1.46-.28,2.02-.84c1.12-1.12,1.12-2.92,0-4.04ZM5.71,20.3c0-8.05,6.55-14.59,14.59-14.59s14.59,6.55,14.59,14.59-6.55,14.59-14.59,14.59-14.59-6.55-14.59-14.59Z"/></svg>