<?xml version="1.0" encoding="UTF-8"?>
<svg id="Layer_1" data-name="Layer 1" xmlns="http://www.w3.org/2000/svg" version="1.1" viewBox="0 0 48 48">
  <defs>
    <style>
      .cls-1 {
        fill: #ececed;
        stroke-width: 0px;
      }
    </style>
  </defs>
  <path class="cls-1" d="M47.2,43.2l-10.7-10.7c2.6-3.4,4.1-7.6,4.1-12.2C40.6,9.1,31.5,0,20.3,0S0,9.1,0,20.3s9.1,20.3,20.3,20.3,8.8-1.5,12.2-4.1l10.7,10.7c.6.6,1.3.8,2,.8s1.5-.3,2-.8c1.1-1.1,1.1-2.9,0-4h0ZM5.7,20.3c0-8.1,6.6-14.6,14.6-14.6s14.6,6.6,14.6,14.6-6.5,14.6-14.6,14.6-14.6-6.5-14.6-14.6Z"/>
</svg>