<?xml version="1.0" encoding="UTF-8"?><svg id="Layer_1" xmlns="http://www.w3.org/2000/svg" viewBox="0 0 100 32.34"><defs><style>.cls-1{fill:#ffee4c;}.cls-1,.cls-2,.cls-3,.cls-4{stroke-width:0px;}.cls-2{fill:#46ff50;}.cls-3{fill:#cfd0d2;}.cls-4{fill:#ff4633;}</style></defs><path class="cls-3" d="M26.19,0v20.65c0,2.2-.48,4.18-1.45,5.95-.97,1.77-2.43,3.17-4.39,4.2-1.96,1.03-4.42,1.55-7.39,1.55-4.22,0-7.44-1.08-9.65-3.23-2.21-2.15-3.32-5-3.32-8.56V0h6.74v19.53c0,2.63.54,4.48,1.62,5.54,1.08,1.06,2.67,1.59,4.78,1.59,1.48,0,2.69-.25,3.61-.76.92-.51,1.6-1.29,2.04-2.36s.65-2.41.65-4.06V0h6.74Z"/><path class="cls-3" d="M61.72,0l-10.85,31.91h-7.38L32.67,0h6.83l6,18.99c.1.32.27.92.5,1.8.23.88.47,1.81.71,2.79.24.98.4,1.79.49,2.43.09-.64.24-1.45.47-2.42.23-.97.45-1.9.68-2.78.23-.88.39-1.49.49-1.82L54.89,0h6.83Z"/><path class="cls-3" d="M68.41,31.91V0h6.77v31.91h-6.77Z"/><rect class="cls-2" x="84.57" y="23.31" width="15.43" height="8.6" rx="1.19" ry="1.19"/><rect class="cls-1" x="84.57" y="11.65" width="15.43" height="8.6" rx="1.19" ry="1.19"/><rect class="cls-4" x="84.57" y="0" width="15.43" height="8.6" rx="1.19" ry="1.19"/></svg>