<?xml version="1.0" encoding="UTF-8"?><svg id="Layer_1" xmlns="http://www.w3.org/2000/svg" viewBox="0 0 10.16 66.63"><defs><style>.cls-1{fill:#3f454b;stroke-width:0px;}</style></defs><rect class="cls-1" x="0" y="62.31" width="10.16" height="4.32" rx=".69" ry=".69"/><rect class="cls-1" x="0" y="56.64" width="10.16" height="4.32" rx=".69" ry=".69"/><rect class="cls-1" x="0" y="50.98" width="10.16" height="4.32" rx=".69" ry=".69"/><rect class="cls-1" x="0" y="45.31" width="10.16" height="4.32" rx=".69" ry=".69"/><rect class="cls-1" x="0" y="39.65" width="10.16" height="4.32" rx=".69" ry=".69"/><rect class="cls-1" x="0" y="33.99" width="10.16" height="4.32" rx=".69" ry=".69"/><rect class="cls-1" x="0" y="28.32" width="10.16" height="4.32" rx=".69" ry=".69"/><rect class="cls-1" x="0" y="22.66" width="10.16" height="4.32" rx=".69" ry=".69"/><rect class="cls-1" x="0" y="16.99" width="10.16" height="4.32" rx=".69" ry=".69"/><rect class="cls-1" x="0" y="11.33" width="10.16" height="4.32" rx=".69" ry=".69"/><rect class="cls-1" x="0" y="5.66" width="10.16" height="4.32" rx=".69" ry=".69"/><rect class="cls-1" x="0" y="0" width="10.16" height="4.32" rx=".69" ry=".69"/></svg>