<?xml version="1.0" encoding="UTF-8"?><svg id="Layer_1" xmlns="http://www.w3.org/2000/svg" viewBox="0 0 50 16.78"><defs><style>.cls-1{fill:#cfd0d2;}.cls-1,.cls-2,.cls-3,.cls-4{stroke-width:0px;}.cls-2{fill:#ffee4c;}.cls-2,.cls-3,.cls-4{opacity:0;}.cls-3{fill:#46ff50;}.cls-4{fill:#ff4633;}</style></defs><path class="cls-1" d="M13.07,0c.29,0,.52.23.52.52v10.19c0,1.14-.25,2.17-.75,3.09-.5.92-1.26,1.64-2.28,2.18-1.02.54-2.29.8-3.83.8-2.19,0-3.86-.56-5.01-1.68-1.15-1.12-1.72-2.6-1.72-4.44V.52C0,.23.23,0,.52,0h2.46c.29,0,.52.23.52.52v9.62c0,1.37.28,2.33.84,2.88.56.55,1.39.83,2.48.83.77,0,1.39-.13,1.87-.4.48-.26.83-.67,1.06-1.22s.34-1.25.34-2.11V.52c0-.29.23-.52.52-.52h2.46Z"/><path class="cls-1" d="M30.8.69l-5.28,15.52c-.07.21-.27.35-.49.35h-3.08c-.22,0-.42-.14-.49-.35L16.19.69c-.11-.34.14-.69.49-.69h2.44c.23,0,.43.15.49.36l3,9.49c.05.17.14.48.26.93.12.46.24.94.37,1.45.12.51.21.93.25,1.26.05-.33.13-.75.24-1.26.12-.51.23-.99.35-1.44.12-.46.2-.77.25-.95L27.38.36c.07-.22.27-.36.49-.36h2.44c.36,0,.61.35.49.69Z"/><path class="cls-1" d="M33.41,16.04V.52c0-.29.23-.52.52-.52h2.47c.29,0,.52.23.52.52v15.52c0,.29-.23.52-.52.52h-2.47c-.29,0-.52-.23-.52-.52Z"/><rect class="cls-3" x="39.49" y="12.09" width="10.51" height="4.47" rx=".71" ry=".71"/><rect class="cls-2" x="39.49" y="6.04" width="10.51" height="4.47" rx=".71" ry=".71"/><rect class="cls-4" x="39.49" y="0" width="10.51" height="4.47" rx=".71" ry=".71"/></svg>